<svg id="Capa_1" enable-background="new 0 0 512.032 512.032" height="512" viewBox="0 0 512.032 512.032" width="512" xmlns="http://www.w3.org/2000/svg"><g><path fill="#fff" d="m354.017.011h-196c-8.284 0-15 6.716-15 15v251.844l80.273 58.583 23.847-17.516c5.285-3.882 12.476-3.881 17.76 0l23.847 17.516 80.273-58.583v-251.844c0-8.285-6.716-15-15-15z"/><path fill="#fff" d="m511.95 199.683c-12.702 9.27-168.415 122.911-197.838 144.384l197.9 145.346c.013-42.253.061-243.352-.062-289.73z"/><path fill="#fff" d="m.065 199.668c-.108 45.604-.056 245.448-.019 289.728l197.876-145.329c-164.534-120.077-188.834-137.814-197.857-144.399z"/><path fill="#fff" d="m256.017 338.622c-.102.075-235.591 173.027-236.083 173.389 365.74 0 451.719.032 472.149-.013-9.048-6.645-228.55-167.855-236.066-173.376z"/><path fill="#fff" d="m496.999 173.455c-52.397-38.076-78.812-57.223-97.981-71.25v142.756z"/><path fill="#fff" d="m113.017 244.961v-142.747c-21.503 15.729-76.287 55.464-97.987 71.237z"/></g></svg>