<?xml version="1.0" encoding="utf-8"?>
<!-- Generator: Adobe Illustrator 24.0.0, SVG Export Plug-In . SVG Version: 6.00 Build 0)  -->
<svg version="1.1" id="Layer_1" xmlns="http://www.w3.org/2000/svg" xmlns:xlink="http://www.w3.org/1999/xlink" x="0px" y="0px"
	 viewBox="0 0 315 248" style="enable-background:new 0 0 315 248;" xml:space="preserve">
<style type="text/css">
	.st0{fill:#fff;}
</style>
<g>
	<path class="st0" d="M51.4,194.8c-9.3,0-13.7-1.9-14.9-6.4c-0.2-1.1-0.3-1.9-0.3-2.8h8c0,0.4,0.1,0.9,0.3,1.4
		c0.5,1.3,2.6,1.7,7,1.7c4.6,0,6-0.8,6-2.4c0-1.6-1.7-1.9-5.7-2.5c-1.1-0.2-4.4-0.7-6-0.9c-6.1-0.9-9-3.5-9-8.8
		c0-4.9,4.4-8.1,13.3-8.1c7.6,0,12.3,2,13.7,5.9c0.3,1.1,0.5,2.8,0.5,3.3h-7.8c0-0.3-0.1-1.2-0.4-1.5c-0.6-0.8-2-1.4-5.8-1.4
		c-4.4,0-5.7,0.7-5.7,2c0,1.2,0.9,1.7,4.8,2.3c1.6,0.2,5.5,0.8,6.4,1c6.6,1,9.5,3.5,9.5,8.6C65.2,191.9,60.9,194.8,51.4,194.8z"/>
	<path class="st0" d="M103,194.3h-7.8l-0.2-3.9c-1.9,3.1-6,4.3-10,4.3c-6.3,0-10.5-2.4-10.5-9.1c0-16-0.1-18.7-0.3-18.9
		c0,0,8.3,0,8.2,0c0.2,0,0.2,11.8,0.2,16.9c0,3.7,2.5,4.9,5.6,4.9c4,0,6.5-2,6.5-5.3v-16.5h8.1c0,0,0,18.4,0,23.2
		C102.8,192.5,102.9,194,103,194.3z"/>
	<path class="st0" d="M151.4,178.1c0-2.6-1-4.9-5.2-4.9c-3.1,0-5.6,1.8-5.6,5.1v16h-8.1c0-0.5,0-13.2,0-16.5c0-2.8-1.9-4.5-5-4.5
		c-3.6,0-5.8,2.5-5.8,5.2v15.9h-8.1v-27.5h7.9v4.3c1.2-3.1,5-4.9,9.2-4.9c4.2,0,7.9,1.7,9.1,5c1.1-3.2,5.3-5,10-5
		c7,0,9.6,3.8,9.6,9.2c0,12.3,0,18.7,0.3,18.9h-8.1C151.4,194.3,151.4,188.5,151.4,178.1z"/>
	<path class="st0" d="M171,194.3v-9.7h9.3v9.7H171z"/>
	<path class="st0" d="M197.7,194.3h-8.9l15.3-39.6h10.9l14.5,39.6h-9l-3.4-9.3h-16L197.7,194.3z M210.4,165.6l-0.9-3.3l-1,3.3
		l-4.5,12.1h10.6L210.4,165.6z"/>
	<path class="st0" d="M270.4,173.4c-1.2,2.1-3.1,3.4-5.1,3.7l9.3,17.1h-9.7l-7.7-15.4h-10.4v15.4h-8.5v-39.6h22
		c5.1,0,8.2,1.7,9.8,4.5c1.2,1.8,1.8,4.1,1.8,7.4C271.9,169.5,271.3,171.9,270.4,173.4z M262.9,164.1c-0.7-1.4-2.2-2.1-4.6-2.1
		h-11.5v9.9h12c1.9,0,3.4-0.6,4-1.7c0.3-0.8,0.6-2.1,0.6-3.1C263.3,166.1,263.2,164.7,262.9,164.1z"/>
</g>
<g>
	<g>
		<path class="st0" d="M168.4,76.3h-25.9c-2.4,0-4.6-1.3-5.8-3.3c-1.2-2.1-1.2-4.6,0-6.7l13-22.4c1.2-2.1,3.4-3.3,5.8-3.3
			c2.4,0,4.6,1.3,5.8,3.3l13,22.4c1.2,2.1,1.2,4.6,0,6.7C173,75,170.9,76.3,168.4,76.3z M155.5,46c-0.2,0-0.7,0.1-1,0.6l-13,22.4
			c-0.3,0.5-0.1,0.9,0,1.1c0.1,0.2,0.4,0.6,1,0.6h25.9c0.6,0,0.9-0.4,1-0.6s0.3-0.6,0-1.1l-13-22.4C156.2,46.1,155.7,46,155.5,46z"
			/>
	</g>
	<g>
		<path class="st0" d="M155.5,116.3c-2.4,0-4.6-1.3-5.8-3.3l-13-22.4c-1.2-2.1-1.2-4.6,0-6.7c1.2-2.1,3.4-3.3,5.8-3.3l25.9,0
			c2.4,0,4.6,1.3,5.8,3.3c1.2,2.1,1.2,4.6,0,6.7l-13,22.4C160.1,115.1,157.9,116.3,155.5,116.3z M168.4,86.1l-25.9,0
			c-0.6,0-0.9,0.4-1,0.6c-0.1,0.2-0.3,0.6,0,1.1l13,22.4c0.3,0.5,0.7,0.6,1,0.6c0.2,0,0.7-0.1,1-0.6l13-22.4c0.3-0.5,0.1-0.9,0-1.1
			S169,86.1,168.4,86.1z"/>
	</g>
	<g>
		<path class="st0" d="M196.5,126h-25.9c-2.4,0-4.6-1.3-5.8-3.3c-1.2-2.1-1.2-4.6,0-6.7l13-22.4c1.2-2.1,3.4-3.3,5.8-3.3
			c2.4,0,4.6,1.3,5.8,3.3l13,22.4c1.2,2.1,1.2,4.6,0,6.7C201.1,124.7,199,126,196.5,126z M183.6,95.7c-0.2,0-0.7,0.1-1,0.6l-13,22.4
			c-0.3,0.5-0.1,0.9,0,1.1c0.1,0.2,0.4,0.6,1,0.6h25.9c0.6,0,0.9-0.4,1-0.6c0.1-0.2,0.3-0.6,0-1.1l-13-22.4
			C184.3,95.8,183.8,95.7,183.6,95.7z"/>
	</g>
	<g>
		<path class="st0" d="M127.3,67.8c-2.4,0-4.6-1.3-5.8-3.3l-13-22.4c-1.2-2.1-1.2-4.6,0-6.7c1.2-2.1,3.4-3.3,5.8-3.3h25.9
			c2.4,0,4.6,1.3,5.8,3.3c1.2,2.1,1.2,4.6,0,6.7l-13,22.4C131.9,66.5,129.7,67.8,127.3,67.8z M114.3,37.5c-0.6,0-0.9,0.4-1,0.6
			c-0.1,0.2-0.3,0.6,0,1.1l13,22.4c0.3,0.5,0.7,0.6,1,0.6c0.2,0,0.7-0.1,1-0.6l13-22.4c0.3-0.5,0.1-0.9,0-1.1
			c-0.1-0.2-0.4-0.6-1-0.6H114.3z"/>
	</g>
</g>
</svg>
